<?xml version="1.0" standalone="no"?>
<svg xmlns="http://www.w3.org/2000/svg" viewBox="0 0 126.984 36" width="126.984" height="36"><g fill="#5d2e4e" color="#5d2e4e" transform="translate(0 4) scale(0.6086957)"><svg width="46.0" height="46.0" x="0.0" y="0.0" viewBox="0 0 46 46"><path fill="currentColor" fill-rule="nonzero" d="M23.04.67C10.72.67.71 10.69.71 23c0 12.31 10.02 22.33 22.33 22.33 12.31 0 22.33-10.02 22.33-22.33C45.37 10.69 35.35.67 23.04.67zm16.41 24.18c-1.06.76-2.13 1.5-3.2 2.24 1.76-2.25 3.43-4.55 4.98-6.9.14.92.22 1.86.22 2.81 0 .43-.02.86-.05 1.29-.61-.07-1.28.08-1.95.56zM4.62 23c0-1.24.13-2.45.36-3.62.45.11.95.07 1.48-.2.83-.43 1.65-.87 2.47-1.31-1.62 2.26-3.06 4.63-4.2 7.14-.07-.67-.11-1.33-.11-2.01zm10.79-2.88c3.1-4.07 6.59-7.84 10.36-11.61 1.15-1.15 1.16-2.55.54-3.62 2.38.43 4.61 1.32 6.58 2.57-5.99 3.98-11.7 8.37-17.48 12.66zM7.75 32.38c2.39-2.11 4.91-4.1 7.5-6.02-2.05 2.73-3.91 5.61-5.51 8.71-.08.15-.14.3-.19.46-.82-.88-1.55-1.84-2.18-2.86.13-.09.26-.19.38-.29zm15.08.8c-1.51 1.67-3 3.35-4.4 5.06-.59.72-.81 1.57-.76 2.38-1.2-.37-2.35-.85-3.43-1.44 2.88-1.98 5.74-3.98 8.59-6zm16.23-19.23c-.27.08-.53.2-.79.39-4.52 3.3-9.04 6.59-13.58 9.86 3.82-4.51 8.04-8.7 12.33-12.74.07-.07.12-.14.18-.21.7.84 1.32 1.74 1.86 2.7zM18.99 5.04c-3.64 1.9-7.26 4.06-10.46 6.65 2.57-3.3 6.24-5.7 10.46-6.65zm6.56 36.2c4.29-2.58 8.56-5.2 12.74-7.94a18.426 18.426 0 0 1-12.74 7.94z"></path></svg></g><path fill="#2e365d" fill-rule="nonzero" d="M4.97 21.86Q2.71 21.86 1.36 20.45Q0 19.03 0 16.56L0 16.56L0 7.06Q0 3.98 1.22 2.42Q2.45 0.86 5.06 0.86L5.06 0.86Q7.34 0.86 8.74 2.11Q10.13 3.36 10.13 5.71L10.13 5.71L10.13 9.26L6.02 9.26L6.02 6.22Q6.02 5.33 5.81 4.99Q5.59 4.66 5.06 4.66L5.06 4.66Q4.51 4.66 4.31 5.04Q4.10 5.42 4.10 6.17L4.10 6.17L4.10 16.51Q4.10 17.33 4.34 17.70Q4.58 18.07 5.06 18.07L5.06 18.07Q6.02 18.07 6.02 16.51L6.02 16.51L6.02 12.79L10.18 12.79L10.18 16.68Q10.18 21.86 4.97 21.86L4.97 21.86ZM15.26 21.67L11.54 21.67L11.54 1.06L17.83 1.06L19.56 13.63L21.29 1.06L27.62 1.06L27.62 21.67L23.86 21.67L23.86 6.82L21.48 21.67L17.78 21.67L15.26 6.82L15.26 21.67ZM34.34 21.86Q31.54 21.86 30.29 20.47Q29.04 19.08 29.04 15.98L29.04 15.98L29.04 13.97L33.10 13.97L33.10 16.54Q33.10 18.07 34.08 18.07L34.08 18.07Q34.63 18.07 34.85 17.75Q35.06 17.42 35.06 16.66L35.06 16.66Q35.06 15.65 34.82 14.99Q34.58 14.33 34.21 13.88Q33.84 13.44 32.88 12.50L32.88 12.50L31.10 10.73Q29.04 8.71 29.04 6.26L29.04 6.26Q29.04 3.62 30.25 2.24Q31.46 0.86 33.79 0.86L33.79 0.86Q36.58 0.86 37.80 2.34Q39.02 3.82 39.02 6.96L39.02 6.96L34.82 6.96L34.80 5.54Q34.80 5.14 34.57 4.90Q34.34 4.66 33.94 4.66L33.94 4.66Q33.46 4.66 33.22 4.92Q32.98 5.18 32.98 5.64L32.98 5.64Q32.98 6.65 34.13 7.73L34.13 7.73L36.53 10.03Q37.37 10.85 37.92 11.58Q38.47 12.31 38.81 13.31Q39.14 14.30 39.14 15.67L39.14 15.67Q39.14 18.72 38.03 20.29Q36.91 21.86 34.34 21.86L34.34 21.86ZM46.13 21.67L46.13 1.06L52.46 1.06Q53.98 1.06 54.80 1.74Q55.63 2.42 55.92 3.66Q56.21 4.90 56.21 6.82L56.21 6.82Q56.21 8.57 55.75 9.55Q55.30 10.54 54.17 10.92L54.17 10.92Q55.10 11.11 55.52 11.86Q55.94 12.60 55.94 13.87L55.94 13.87L55.90 21.67L51.86 21.67L51.86 13.61Q51.86 12.74 51.53 12.50Q51.19 12.26 50.30 12.26L50.30 12.26L50.30 21.67L46.13 21.67ZM50.33 8.69L51.31 8.69Q52.18 8.69 52.18 6.82L52.18 6.82Q52.18 6 52.10 5.59Q52.03 5.18 51.84 5.03Q51.65 4.87 51.29 4.87L51.29 4.87L50.33 4.87L50.33 8.69ZM60.70 21.86Q58.66 21.86 57.90 20.51Q57.14 19.15 57.14 16.63L57.14 16.63Q57.14 14.57 57.68 13.46Q58.22 12.36 59.18 11.84Q60.14 11.33 62.11 10.70L62.11 10.70L63.26 10.32L63.26 10.27L63.26 8.52Q63.26 7.82 62.99 7.45Q62.71 7.08 62.33 7.08L62.33 7.08Q61.99 7.08 61.74 7.39Q61.49 7.70 61.49 8.23L61.49 8.23L61.49 9.29L57.41 9.29L57.41 8.71Q57.41 6.12 58.62 5.02Q59.83 3.91 62.57 3.91L62.57 3.91Q64.75 3.91 66.12 5.05Q67.49 6.19 67.49 8.28L67.49 8.28L67.49 21.67L63.31 21.67L63.31 19.58Q63 20.66 62.32 21.26Q61.63 21.86 60.70 21.86L60.70 21.86ZM62.35 18.60Q62.83 18.60 63.04 18.20Q63.24 17.81 63.24 17.23L63.24 17.23L63.24 12.34Q62.30 12.70 61.86 13.25Q61.42 13.80 61.42 14.78L61.42 14.78L61.42 17.04Q61.42 18.60 62.35 18.60L62.35 18.60ZM73.27 2.93L69.07 2.93L69.07 0L73.27 0L73.27 2.93ZM73.27 21.67L69.07 21.67L69.07 4.10L73.27 4.10L73.27 21.67ZM79.20 21.67L74.93 21.67L74.93 0.94L79.20 0.94L79.20 21.67ZM85.70 21.86Q80.50 21.86 80.50 16.58L80.50 16.58L80.52 15.19L84.72 15.19L84.74 17.26Q84.74 17.88 84.98 18.20Q85.22 18.53 85.78 18.53L85.78 18.53Q86.62 18.53 86.62 17.16L86.62 17.16Q86.62 16.15 86.22 15.58Q85.82 15 84.96 14.35L84.96 14.35L82.73 12.62Q81.58 11.74 81.07 10.79Q80.57 9.84 80.57 8.11L80.57 8.11Q80.57 6.77 81.28 5.82Q81.98 4.87 83.16 4.39Q84.34 3.91 85.78 3.91L85.78 3.91Q90.89 3.91 90.89 9L90.89 9L90.89 9.34L86.54 9.34L86.54 8.66Q86.54 8.04 86.34 7.60Q86.14 7.15 85.66 7.15L85.66 7.15Q85.22 7.15 85.00 7.40Q84.77 7.66 84.77 8.09L84.77 8.09Q84.77 9.05 85.51 9.58L85.51 9.58L88.10 11.47Q89.50 12.50 90.24 13.72Q90.98 14.93 90.98 16.78L90.98 16.78Q90.98 19.22 89.59 20.54Q88.20 21.86 85.70 21.86L85.70 21.86Z" transform="translate(36, 7.068)"></path></svg>